<svg width="410" height="203" viewBox="0 0 410 203" fill="none" xmlns="http://www.w3.org/2000/svg">
<g clip-path="url(#clip0_0_1)">
<path d="M203.27 10.07L198.83 23.7C195.28 22.04 190.45 20.57 183.66 20.57C176.37 20.57 170.45 21.64 170.45 27.14C170.45 36.84 197.16 33.22 197.16 54.01C197.16 72.93 179.51 77.84 163.55 77.84C156.46 77.84 148.27 76.16 142.27 74.3L146.61 60.38C150.25 62.74 157.55 64.31 163.56 64.31C169.57 64.31 178.24 63.23 178.24 56.17C178.24 45.18 151.53 49.3 151.53 30C151.53 12.34 167.11 7.05 182.19 7.05C190.67 7.05 198.65 7.94 203.28 10.09M150.34 8.21L136.05 76.66H117.63L123.74 47.34H101.95L95.84 76.66H77.42L91.71 8.21H110.13L104.72 34.4H126.5L131.92 8.21H150.34ZM84.91 8.21L70.33 76.66H47.45L33.07 29.3H32.88L23.31 76.66H5.96L20.65 8.21H43.61L57.71 55.67H57.9L67.56 8.21H84.91ZM211.18 0H0V85.04H211.18V0Z" fill="white"/>
<path d="M4.86005 110.62H18.3L28.26 142.36H28.38L38.34 110.62H51.78V152.5H43.74V117.94H43.62L32.34 152.5H24.3L13.02 117.94L12.9 118.06V152.5H4.86005V110.62Z" fill="white"/>
<path d="M85.56 150.76C82.62 152.38 79.2601 153.22 74.9401 153.22C64.7401 153.22 58.8 147.34 58.8 137.2C58.8 128.26 63.54 120.88 73.14 120.88C84.6 120.88 87.84 128.74 87.84 139.54H66.4801C66.8401 144.52 70.3201 147.34 75.3001 147.34C79.2001 147.34 82.56 145.9 85.56 144.22V150.76ZM80.1601 134.02C79.9201 130.12 78.1201 126.76 73.6201 126.76C69.1201 126.76 66.8401 129.88 66.4801 134.02H80.1601Z" fill="white"/>
<path d="M114.72 149.02H114.6C112.2 152.02 108.9 153.22 105.12 153.22C95.64 153.22 92.16 145.42 92.16 136.96C92.16 128.5 95.64 120.88 105.12 120.88C109.14 120.88 111.96 122.26 114.36 125.2H114.48V107.5H122.52V152.5H114.72V149.02ZM107.34 146.98C112.68 146.98 114.42 141.34 114.42 136.96C114.42 132.58 112.38 127.12 107.22 127.12C102.06 127.12 100.56 132.82 100.56 136.96C100.56 141.1 102.06 146.98 107.34 146.98Z" fill="white"/>
<path d="M127.32 121.6H135.84L142.68 144.46H142.8L149.04 121.6H158.4L165.12 144.46H165.24L171.66 121.6H179.34L169.86 152.5H160.38L153.66 128.92H153.54L146.94 152.5H137.76L127.32 121.6Z" fill="white"/>
<path d="M185.52 123.22C188.64 121.78 192.84 120.88 196.26 120.88C205.68 120.88 209.58 124.78 209.58 133.9V137.86C209.58 140.98 209.64 143.32 209.7 145.6C209.76 147.94 209.88 150.1 210.06 152.5H202.98C202.68 150.88 202.68 148.84 202.62 147.88H202.5C200.64 151.3 196.62 153.22 192.96 153.22C187.5 153.22 182.16 149.92 182.16 144.04C182.16 139.42 184.38 136.72 187.44 135.22C190.5 133.72 194.46 133.42 197.82 133.42H202.26C202.26 128.44 200.04 126.76 195.3 126.76C191.88 126.76 188.46 128.08 185.76 130.12L185.52 123.22ZM194.94 147.34C197.4 147.34 199.32 146.26 200.58 144.58C201.9 142.84 202.26 140.62 202.26 138.22H198.78C195.18 138.22 189.84 138.82 189.84 143.56C189.84 146.2 192.06 147.34 194.94 147.34Z" fill="white"/>
<path d="M230.34 144.16H230.46L237.9 121.6H246.06L234.48 152.26C231.9 159.1 230.04 165.82 221.64 165.82C219.72 165.82 217.8 165.52 215.94 164.98L216.48 159.04C217.5 159.4 218.64 159.58 220.62 159.58C223.86 159.58 225.84 157.36 225.84 154.06L214.02 121.6H222.9L230.34 144.16Z" fill="white"/>
<path d="M2.96002 174.58H9.84002L20.48 195.46H20.56V174.58H25.92V202.5H19.08L8.40002 181.62H8.32002V202.5H2.96002V174.58Z" fill="white"/>
<path d="M32.12 174.58H37.72V185.86H48.92V174.58H54.52V202.5H48.92V190.26H37.72V202.5H32.12V174.58Z" fill="white"/>
<path d="M76 179.7C74.24 178.94 72.28 178.5 70.32 178.5C68.36 178.5 65.92 179.34 65.92 182.38C65.92 187.22 78.16 185.18 78.16 194.54C78.16 200.66 73.32 202.98 67.68 202.98C64.64 202.98 63.28 202.58 60.52 201.9L61.04 196.86C62.96 197.9 65.16 198.58 67.36 198.58C69.56 198.58 72.32 197.5 72.32 194.98C72.32 189.66 60.08 191.86 60.08 182.62C60.08 176.38 64.92 174.1 69.84 174.1C72.24 174.1 74.48 174.42 76.52 175.1L76 179.7Z" fill="white"/>
<path d="M94.36 174.58H109.88V178.98H99.96V185.86H109.4V190.26H99.96V202.5H94.36V174.58Z" fill="white"/>
<path d="M123.32 181.42C129.44 181.42 134.12 185.54 134.12 192.34C134.12 198.26 130.16 202.98 123.32 202.98C116.48 202.98 112.56 198.26 112.56 192.34C112.56 185.54 117.24 181.42 123.32 181.42ZM123.32 198.82C127.44 198.82 128.52 195.14 128.52 191.7C128.52 188.54 126.84 185.58 123.32 185.58C119.8 185.58 118.16 188.62 118.16 191.7C118.16 195.1 119.24 198.82 123.32 198.82Z" fill="white"/>
<path d="M157.23 202.5H152.15V199.7H152.07C150.43 201.7 148.11 202.98 145.31 202.98C140.43 202.98 138.31 199.54 138.31 194.9V181.9H143.67V192.9C143.67 195.42 143.71 198.82 147.15 198.82C151.03 198.82 151.87 194.62 151.87 191.98V181.9H157.23V202.5Z" fill="white"/>
<path d="M162.76 181.9H167.84V184.7H167.92C169.6 182.34 171.88 181.42 174.68 181.42C179.56 181.42 181.68 184.86 181.68 189.5V202.5H176.32V191.5C176.32 188.98 176.28 185.58 172.84 185.58C168.96 185.58 168.12 189.78 168.12 192.42V202.5H162.76V181.9Z" fill="white"/>
<path d="M200.92 200.18H200.84C199.24 202.18 197.04 202.98 194.52 202.98C188.2 202.98 185.88 197.78 185.88 192.14C185.88 186.5 188.2 181.42 194.52 181.42C197.2 181.42 199.08 182.34 200.68 184.3H200.76V172.5H206.12V202.5H200.92V200.18ZM196 198.82C199.56 198.82 200.72 195.06 200.72 192.14C200.72 189.22 199.36 185.58 195.92 185.58C192.48 185.58 191.48 189.38 191.48 192.14C191.48 194.9 192.48 198.82 196 198.82Z" fill="white"/>
<path d="M212.56 182.98C214.64 182.02 217.44 181.42 219.72 181.42C226 181.42 228.6 184.02 228.6 190.1V192.74C228.6 194.82 228.64 196.38 228.68 197.9C228.72 199.46 228.8 200.9 228.92 202.5H224.2C224 201.42 224 200.06 223.96 199.42H223.88C222.64 201.7 219.96 202.98 217.52 202.98C213.88 202.98 210.32 200.78 210.32 196.86C210.32 193.78 211.8 191.98 213.84 190.98C215.88 189.98 218.52 189.78 220.76 189.78H223.72C223.72 186.46 222.24 185.34 219.08 185.34C216.8 185.34 214.52 186.22 212.72 187.58L212.56 182.98ZM218.84 199.06C220.48 199.06 221.76 198.34 222.6 197.22C223.48 196.06 223.72 194.58 223.72 192.98H221.4C219 192.98 215.44 193.38 215.44 196.54C215.44 198.3 216.92 199.06 218.84 199.06Z" fill="white"/>
<path d="M235.64 185.82H231.68V181.9H235.64V177.78L241 176.06V181.9H245.76V185.82H241V195.42C241 197.18 241.48 198.82 243.52 198.82C244.48 198.82 245.4 198.62 245.96 198.26L246.12 202.5C245 202.82 243.76 202.98 242.16 202.98C237.96 202.98 235.64 200.38 235.64 196.3V185.82Z" fill="white"/>
<path d="M249.56 173.02H254.92V178.14H249.56V173.02ZM249.56 181.9H254.92V202.5H249.56V181.9Z" fill="white"/>
<path d="M270 181.42C276.12 181.42 280.8 185.54 280.8 192.34C280.8 198.26 276.84 202.98 270 202.98C263.16 202.98 259.24 198.26 259.24 192.34C259.24 185.54 263.92 181.42 270 181.42ZM270 198.82C274.12 198.82 275.2 195.14 275.2 191.7C275.2 188.54 273.52 185.58 270 185.58C266.48 185.58 264.84 188.62 264.84 191.7C264.84 195.1 265.92 198.82 270 198.82Z" fill="white"/>
<path d="M285 181.9H290.08V184.7H290.16C291.84 182.34 294.12 181.42 296.92 181.42C301.8 181.42 303.92 184.86 303.92 189.5V202.5H298.56V191.5C298.56 188.98 298.52 185.58 295.08 185.58C291.2 185.58 290.36 189.78 290.36 192.42V202.5H285V181.9Z" fill="white"/>
<path d="M326.12 178.98H318.12V174.58H339.72V178.98H331.72V202.5H326.12V178.98Z" fill="white"/>
<path d="M339.24 181.9H344V186.58H344.08C344.32 184.66 346.52 181.42 349.72 181.42C350.24 181.42 350.8 181.42 351.36 181.58V186.98C350.88 186.7 349.92 186.54 348.96 186.54C344.6 186.54 344.6 191.98 344.6 194.94V202.5H339.24V181.9Z" fill="white"/>
<path d="M373.59 202.5H368.51V199.7H368.43C366.79 201.7 364.47 202.98 361.67 202.98C356.79 202.98 354.67 199.54 354.67 194.9V181.9H360.03V192.9C360.03 195.42 360.07 198.82 363.51 198.82C367.39 198.82 368.23 194.62 368.23 191.98V181.9H373.59V202.5Z" fill="white"/>
<path d="M391.35 186.22C389.71 185.66 388.51 185.34 386.55 185.34C385.11 185.34 383.39 185.86 383.39 187.62C383.39 190.9 392.71 188.82 392.71 196.26C392.71 201.06 388.43 202.98 384.07 202.98C382.03 202.98 379.95 202.62 377.99 202.1L378.31 197.7C379.99 198.54 381.75 199.06 383.59 199.06C384.95 199.06 387.11 198.54 387.11 196.54C387.11 192.5 377.79 195.26 377.79 187.82C377.79 183.38 381.67 181.42 385.87 181.42C388.39 181.42 390.03 181.82 391.71 182.18L391.35 186.22Z" fill="white"/>
<path d="M398.63 185.82H394.67V181.9H398.63V177.78L403.99 176.06V181.9H408.75V185.82H403.99V195.42C403.99 197.18 404.47 198.82 406.51 198.82C407.47 198.82 408.39 198.62 408.95 198.26L409.11 202.5C407.99 202.82 406.75 202.98 405.15 202.98C400.95 202.98 398.63 200.38 398.63 196.3V185.82Z" fill="white"/>
</g>
<defs>
<clipPath id="clip0_0_1">
<rect width="409.11" height="202.98" fill="white"/>
</clipPath>
</defs>
</svg>
